<?xml version="1.0" encoding="UTF-8" standalone="no"?>
<!-- Created with Inkscape (http://www.inkscape.org/) -->
<svg
   xmlns:svg="http://www.w3.org/2000/svg"
   xmlns="http://www.w3.org/2000/svg"
   version="1.0"
   width="780"
   height="152"
   id="svg71173"
   xml:space="preserve"><defs
     id="defs71176"><clipPath
       id="clipPath72044"><path
         d="M 143.88,111.26 L 543.3,111.26 L 543.3,124.28 L 143.88,124.28 L 143.88,111.26 z"
         id="path72046" /></clipPath></defs><g
     transform="matrix(1.25,0,0,-1.25,0,1052.5)"
     id="g71182"><g
       transform="matrix(10.751089,0,0,9.0434786,-5319.2659,-6121.6474)"
       id="g72534"><path
         d="M 492.985,751.1 L 554.85,751.1 L 554.85,812.957 L 492.985,812.957 L 492.985,751.1 z"
         id="path71616"
         style="fill:#007550;fill-opacity:1;fill-rule:nonzero;stroke:none" /><path
         d="M 515.851,765.413 C 516.322,765.711 517.068,765.662 517.56,765.444 C 517.554,765.168 517.528,764.856 517.56,764.573 L 517.407,764.556 C 517.28,764.848 516.974,765.039 516.662,765.044 C 516.423,765.054 516.215,764.958 516.081,764.759 C 515.962,764.577 515.984,764.312 516.107,764.147 C 516.415,763.734 517.178,763.522 517.576,762.956 C 517.856,762.544 517.843,762.007 517.598,761.565 C 517.31,761.05 516.627,760.868 516.138,760.92 C 515.861,760.95 515.572,761.016 515.32,761.133 C 515.346,761.455 515.335,761.801 515.33,762.129 L 515.51,762.139 C 515.561,761.839 515.833,761.611 516.05,761.549 C 516.459,761.428 516.733,761.58 516.874,761.746 C 517.05,761.953 517.019,762.316 516.916,762.459 C 516.669,762.804 516.203,763.015 515.872,763.251 C 514.927,763.927 515.22,764.991 515.851,765.413"
         id="path71618"
         style="fill:#ffffff;fill-opacity:1;fill-rule:nonzero;stroke:none" /><path
         d="M 507.338,761.174 C 507.568,761.129 507.795,761.18 507.924,761.375 C 508.001,761.499 508.031,761.644 508.031,761.801 L 508.031,764.655 C 508.029,764.945 508.004,765.256 507.786,765.445 L 507.786,765.565 L 509.003,765.565 L 509.003,765.447 C 508.793,765.3 508.78,765.02 508.78,764.65 C 508.78,764.659 508.791,762.77 508.791,762.77 C 508.791,762.255 508.81,761.85 508.792,761.7 C 508.745,761.332 508.494,761.005 508.141,760.886 C 507.897,760.799 507.585,760.805 507.316,760.839 L 507.338,761.174"
         id="path71620"
         style="fill:#ffffff;fill-opacity:1;fill-rule:nonzero;stroke:none" /><path
         d="M 511.362,765.565 C 511.326,765.343 511.392,765.149 511.49,764.972 L 512.109,763.881 C 512.134,763.835 512.151,763.792 512.174,763.738 C 512.191,763.789 512.213,763.841 512.234,763.883 C 512.441,764.266 512.67,764.642 512.88,765.025 C 512.967,765.185 513.004,765.367 512.971,765.565 C 512.971,765.565 514.066,765.564 514.065,765.565 C 514.063,765.565 514.07,765.447 514.065,765.444 C 513.82,765.355 513.584,764.943 513.467,764.739 L 512.528,763.063 L 512.529,761.672 C 512.532,761.309 512.602,761.178 512.743,761.076 L 512.743,760.958 L 511.523,760.958 L 511.523,761.076 C 511.71,761.216 511.732,761.367 511.738,761.677 L 511.741,763.083 L 510.661,764.994 C 510.558,765.172 510.391,765.353 510.204,765.444 L 510.204,765.565 L 511.362,765.565"
         id="path71622"
         style="fill:#ffffff;fill-opacity:1;fill-rule:nonzero;stroke:none" /><path
         d="M 541.226,765.564 C 541.272,765.393 541.514,765.081 541.637,764.921 L 543.553,762.421 C 543.649,762.297 543.713,762.177 543.713,762.177 C 543.713,762.177 543.701,762.24 543.694,762.345 C 543.685,762.444 543.683,762.583 543.681,762.729 L 543.681,764.415 C 543.681,764.903 543.666,765.276 543.436,765.435 L 543.436,765.561 L 544.57,765.561 L 544.57,765.435 C 544.317,765.225 544.325,764.849 544.326,764.397 L 544.326,761.935 C 544.328,761.616 544.34,761.273 544.507,761.078 L 544.507,760.958 L 543.607,760.958 C 543.576,761.228 543.185,761.676 542.99,761.926 L 541.334,764.091 C 541.296,764.145 541.234,764.267 541.234,764.267 C 541.234,764.267 541.242,764.215 541.247,764.121 C 541.255,763.957 541.262,763.668 541.261,763.312 L 541.261,762.123 C 541.263,761.545 541.272,761.217 541.504,761.079 L 541.504,760.958 C 541.504,760.958 540.381,760.957 540.382,760.958 C 540.384,760.958 540.381,761.076 540.382,761.078 C 540.504,761.172 540.615,761.233 540.616,762.139 L 540.616,764.973 C 540.484,765.15 540.326,765.384 540.11,765.443 L 540.11,765.564 L 541.226,765.564"
         id="path71624"
         style="fill:#ffffff;fill-opacity:1;fill-rule:nonzero;stroke:none" /><path
         d="M 524.699,761.155 C 524.86,761.375 524.844,761.668 524.858,761.947 L 524.858,764.562 C 524.856,764.907 524.865,765.266 524.658,765.444 L 524.658,765.565 L 527.372,765.565 L 526.919,764.789 C 526.627,765.023 526.254,765.049 525.618,765.054 L 525.618,763.625 L 527.113,763.625 L 526.669,762.869 C 526.388,763.116 525.991,763.122 525.617,763.128 L 525.617,761.486 C 526.727,761.479 527.006,761.577 527.463,761.852 L 527.538,761.81 L 527.202,760.959 C 527.202,760.959 524.62,760.958 524.62,760.959 L 524.62,761.078 L 524.699,761.155"
         id="path71626"
         style="fill:#ffffff;fill-opacity:1;fill-rule:nonzero;stroke:none" /><path
         d="M 519.491,761.079 C 519.67,761.178 519.73,761.405 519.73,762.112 C 519.73,762.779 519.73,764.467 519.73,764.467 C 519.73,764.799 519.754,765.32 519.537,765.444 L 519.537,765.564 L 520.696,765.564 L 520.696,765.447 C 520.526,765.339 520.531,765.149 520.499,764.976 C 520.486,764.767 520.481,764.547 520.481,764.323 C 520.481,764.323 520.48,763.61 520.481,763.609 C 520.481,763.583 520.48,763.551 520.48,763.525 C 520.48,763.525 520.504,763.564 520.531,763.596 L 521.612,764.945 C 521.746,765.14 521.945,765.305 521.909,765.564 L 523.118,765.564 L 523.118,765.447 C 522.938,765.373 522.779,765.242 522.632,765.095 C 522.56,765.024 522.48,764.952 522.42,764.874 C 522.359,764.794 522.199,764.597 522.199,764.597 L 521.511,763.758 C 521.357,763.569 521.283,763.496 521.283,763.496 C 521.283,763.496 521.365,763.413 521.513,763.216 L 522.342,762.147 C 522.684,761.716 522.89,761.475 522.89,761.475 C 523.032,761.328 523.198,761.132 523.4,761.079 L 523.4,760.958 L 522.081,760.958 C 522.104,761.197 521.968,761.373 521.852,761.554 L 520.522,763.278 C 520.498,763.309 520.481,763.347 520.481,763.347 C 520.481,763.347 520.483,763.321 520.483,763.268 L 520.487,762.092 C 520.491,761.512 520.521,761.201 520.734,761.079 C 520.737,761.079 520.732,760.958 520.734,760.958 C 520.736,760.959 519.489,760.958 519.491,760.958 C 519.492,760.958 519.492,761.078 519.491,761.079"
         id="path71628"
         style="fill:#ffffff;fill-opacity:1;fill-rule:nonzero;stroke:none" /><path
         d="M 546.417,761.079 C 546.596,761.178 546.657,761.405 546.658,762.113 C 546.659,762.779 546.658,764.467 546.658,764.467 C 546.657,764.799 546.681,765.32 546.463,765.444 L 546.463,765.565 L 547.623,765.565 L 547.623,765.447 C 547.453,765.341 547.457,765.149 547.425,764.976 C 547.413,764.767 547.41,764.547 547.409,764.323 C 547.409,764.324 547.407,763.61 547.409,763.609 C 547.409,763.583 547.405,763.551 547.405,763.525 C 547.405,763.525 547.429,763.566 547.457,763.596 L 548.538,764.945 C 548.672,765.141 548.872,765.305 548.837,765.565 L 550.045,765.565 L 550.045,765.447 C 549.866,765.373 549.708,765.243 549.558,765.096 C 549.486,765.024 549.408,764.953 549.346,764.874 C 549.285,764.796 549.126,764.598 549.126,764.598 L 548.438,763.758 C 548.284,763.57 548.212,763.497 548.212,763.497 C 548.212,763.497 548.291,763.413 548.441,763.216 L 549.269,762.148 C 549.611,761.716 549.816,761.475 549.816,761.475 C 549.959,761.329 550.125,761.133 550.327,761.08 L 550.327,760.958 L 549.007,760.958 C 549.032,761.198 548.894,761.373 548.779,761.554 L 547.45,763.278 C 547.425,763.309 547.409,763.348 547.409,763.348 C 547.409,763.348 547.411,763.322 547.411,763.268 L 547.415,762.093 C 547.418,761.513 547.448,761.201 547.66,761.079 C 547.662,761.08 547.659,760.958 547.66,760.958 C 547.661,760.959 546.416,760.958 546.417,760.958 C 546.42,760.958 546.42,761.079 546.417,761.079"
         id="path71630"
         style="fill:#ffffff;fill-opacity:1;fill-rule:nonzero;stroke:none" /><path
         d="M 536.87,763.971 L 536.434,762.86 L 537.559,762.86 L 537.112,763.965 C 537.06,764.098 536.988,764.313 536.988,764.313 C 536.988,764.313 536.918,764.104 536.87,763.971 M 534.763,761.078 C 535.028,761.225 535.287,761.845 535.416,762.135 C 535.415,762.136 536.956,765.604 536.956,765.604 L 537.101,765.604 L 538.616,762.164 C 538.91,761.504 539.035,761.193 539.26,761.079 L 539.26,760.958 L 538.174,760.958 C 538.224,761.175 538.158,761.378 538.09,761.564 L 537.765,762.326 L 536.235,762.326 C 536.235,762.326 536.019,761.786 536.02,761.786 C 535.894,761.487 535.811,761.283 535.852,760.958 L 534.763,760.958 C 534.763,760.96 534.765,761.079 534.763,761.078"
         id="path71632"
         style="fill:#ffffff;fill-opacity:1;fill-rule:nonzero;stroke:none" /><path
         d="M 501.889,766.234 L 503.44,764.683 L 500.341,764.683 L 501.889,766.234"
         id="path71634"
         style="fill:#ffffff;fill-opacity:1;fill-rule:nonzero;stroke:none" /><path
         d="M 499.447,766.485 L 501.638,766.485 L 499.447,764.294 L 499.447,766.485"
         id="path71636"
         style="fill:#ffffff;fill-opacity:1;fill-rule:nonzero;stroke:none" /><path
         d="M 497.542,764.935 L 499.091,766.485 L 499.091,763.386 L 497.542,764.935"
         id="path71638"
         style="fill:#ffffff;fill-opacity:1;fill-rule:nonzero;stroke:none" /><path
         d="M 497.289,762.492 L 497.289,764.683 L 499.481,762.492 L 497.289,762.492"
         id="path71640"
         style="fill:#ffffff;fill-opacity:1;fill-rule:nonzero;stroke:none" /><path
         d="M 498.838,760.588 L 497.289,762.137 L 500.389,762.137 L 498.838,760.588"
         id="path71642"
         style="fill:#ffffff;fill-opacity:1;fill-rule:nonzero;stroke:none" /><path
         d="M 501.283,760.336 L 499.091,760.336 L 501.283,762.528 L 501.283,760.336"
         id="path71644"
         style="fill:#ffffff;fill-opacity:1;fill-rule:nonzero;stroke:none" /><path
         d="M 503.188,761.885 L 501.637,760.336 L 501.637,763.435 L 503.188,761.885"
         id="path71646"
         style="fill:#ffffff;fill-opacity:1;fill-rule:nonzero;stroke:none" /><path
         d="M 503.44,764.328 L 503.44,762.137 L 501.247,764.328 L 503.44,764.328"
         id="path71648"
         style="fill:#ffffff;fill-opacity:1;fill-rule:nonzero;stroke:none" /><path
         d="M 531.894,763.603 C 532.181,763.596 532.48,763.598 532.689,763.85 C 532.915,764.123 532.925,764.575 532.752,764.808 C 532.541,765.091 532.251,765.131 531.894,765.123 L 531.894,763.603 z M 531.894,761.428 C 532.3,761.401 532.72,761.459 532.954,761.829 C 533.096,762.065 533.118,762.424 532.996,762.679 C 532.781,763.091 532.337,763.156 531.894,763.144 L 531.894,761.428 z M 530.891,761.071 C 531.141,761.19 531.14,761.543 531.142,762.084 L 531.142,764.498 C 531.133,765.069 531.135,765.303 530.954,765.444 L 530.954,765.563 L 532.131,765.563 C 532.651,765.564 533.286,765.466 533.559,764.855 C 533.699,764.539 533.658,764.182 533.507,763.919 C 533.342,763.65 533.063,763.473 532.77,763.422 C 533.194,763.376 533.645,763.15 533.809,762.727 C 533.973,762.299 533.883,761.754 533.559,761.417 C 533.195,761.052 532.754,760.958 532.104,760.958 L 530.891,760.958 C 530.889,760.954 530.891,761.074 530.891,761.071"
         id="path71650"
         style="fill:#ffffff;fill-opacity:1;fill-rule:nonzero;stroke:none" /></g></g></svg>